<svg width="623" height="673" viewBox="0 0 623 673" fill="none" xmlns="http://www.w3.org/2000/svg">
<path d="M600.845 307.991C598.92 296.413 597.025 285.285 595.101 273.983C599.394 272.091 603.756 270.17 608.874 267.916C622.607 325.212 621.365 381.487 601.475 437.11C626.069 459.871 626.649 489.107 613.937 510.773C601.12 532.618 574.618 545.126 545.467 536.151C531.894 548.846 519.262 561.971 505.296 573.478C464.013 607.491 416.891 629.214 363.981 637.959C361.138 638.429 359.481 639.394 358.19 642.169C348.367 663.283 325.55 674.98 301.576 671.436C279.084 668.111 260.227 649.202 257.054 626.791C252.853 597.11 273.202 569.827 302.635 565.678C332.245 561.503 359.041 581.903 363.237 611.882C363.694 615.146 363.736 618.468 364.022 622.48C430.172 609.933 485.228 578.417 530.013 528.393C504.932 508.816 499.147 475.497 515.086 450.512C528.933 428.808 557.559 415.822 588.155 429.052C601.706 389.722 605.853 349.595 600.845 307.991ZM551.591 520.71C553.034 521.089 554.465 521.533 555.924 521.838C575.1 525.852 595.329 514.961 602.469 496.796C610.091 477.407 602.591 456.33 584.263 445.632C567.277 435.718 544.888 439.808 532.293 454.906C512.066 479.153 525.98 512.896 551.591 520.71ZM342.39 600.796C333.604 586.387 318.994 579.289 303.146 582.614C288.455 585.697 278.438 594.76 274.392 609.279C270.424 623.517 274.644 636.027 285.355 645.903C298.391 657.922 318.778 658.729 332.233 648.257C344.219 638.929 352.912 620.016 342.39 600.796Z" fill="#FAFAFA"/>
<path d="M92.3286 243.803C75.2923 260.536 55.7372 264.149 32.8856 256.451C16.0681 307.522 15.115 359.123 27.9206 411.355C23.3356 413.64 18.8994 415.851 13.4539 418.566C10.9805 404.691 7.97725 391.212 6.27475 377.571C3.05112 351.741 2.76062 325.758 7.1685 300.065C9.88638 284.222 14.3274 268.663 18.3287 253.062C19.0815 250.127 19.1843 248.326 16.7946 246.169C-2.14931 229.074 -4.74196 200.515 7.37517 180.419C20.6664 158.376 46.0124 149.343 71.1068 157.547C71.4197 157.649 71.7558 157.681 71.0969 157.55C83.8345 144.633 95.6657 131.554 108.631 119.717C134.299 96.2809 163.697 78.5484 195.958 65.6024C198.591 64.5456 200.516 63.5061 201.742 60.3698C204.434 53.4822 212.963 50.8461 219.875 54.0376C227.034 57.3427 230.079 65.6695 226.815 73.0112C224.006 79.3288 215.578 82.7555 209.058 79.7105C206.221 78.3854 204.009 78.3492 201.248 79.541C158.91 97.8183 121.909 123.485 91.6324 158.492C89.6872 160.742 87.9085 163.135 85.894 165.659C98.8352 176.161 105.852 189.668 106.346 206.153C106.772 220.337 102.359 232.994 92.3286 243.803ZM48.0259 243.557C64.7715 245.484 79.1457 238.049 86.0479 223.891C93.3164 208.982 90.6133 193.291 78.7238 181.376C67.8755 170.505 50.6131 168.004 36.2664 175.225C22.6954 182.056 14.5926 197.595 16.8548 212.451C19.2892 228.439 29.9496 239.363 48.0259 243.557Z" fill="#FAFAFA"/>
<path d="M199.639 621.815C152.991 603.575 113.496 575.798 80.8871 538.312C78.2523 535.284 75.8691 536.242 73.0243 536.973C47.8826 543.429 23.0936 533.834 9.14045 512.273C-11.945 479.691 5.37794 435.32 42.9504 425.671C70.241 418.663 97.9663 431.111 110.15 455.842C122.417 480.744 115.395 509.567 92.1525 528.137C130.608 571.656 177.536 601.37 233.629 616.718C234.163 621.893 234.703 627.129 235.384 633.733C223.354 629.737 211.673 625.856 199.639 621.815ZM97.2754 467.959C96.5121 466.122 95.8604 464.229 94.9684 462.457C86.5266 445.684 66.8532 437.031 47.6394 441.597C29.8191 445.831 15.885 463.111 16.509 481.289C17.1053 498.66 25.0772 511.982 41.287 519.06C57.4263 526.107 72.8315 523.558 85.7819 511.755C98.5028 500.161 102.548 485.483 97.2754 467.959Z" fill="#FAFAFB"/>
<path d="M428.589 66.0468C476.981 86.6998 517.811 116.683 549.528 158.286C580.961 146.721 608.285 164.335 617.712 186.622C628.512 212.157 618.866 240.608 594.675 254.154C571.339 267.221 540.766 260.3 525.283 238.332C511.385 218.612 511.237 186.462 536.232 165.84C498.78 119.109 451.06 87.7993 393.741 70.1365C393.962 65.2352 394.191 60.1609 394.475 53.8847C405.96 57.9562 417.108 61.9077 428.589 66.0468ZM582.863 173.97C580.807 173.322 578.78 172.559 576.692 172.044C562.575 168.559 546.139 175.329 538.108 187.886C529.913 200.697 530.442 218.047 539.377 229.515C549.027 241.903 564.485 246.853 579.495 242.361C594.121 237.984 604.26 225.111 605.582 209.24C606.745 195.294 597.772 181.079 582.863 173.97Z" fill="#FAFAFA"/>
<path d="M352.088 15.4555C387.411 48.4102 376.544 105.026 332.099 121.319C294.881 134.963 254.066 109.7 248.75 70.6803C245.472 46.614 258.91 19.1704 280.475 7.80535C304.249 -4.72401 330.819 -2.16551 352.088 15.4555ZM303.294 16.9825C277.881 21.829 261.461 44.3675 265.142 69.3477C268.955 95.2188 294.84 113.257 320.037 107.531C344.437 101.986 358.479 80.4652 356.672 59.4131C354.28 31.5449 332.021 14.1824 303.294 16.9825Z" fill="#FAFAFB"/>
<path d="M378.059 572.788C383.761 565.95 389.163 565.054 396.742 569.135C397.797 569.703 399.507 569.818 400.626 569.391C424.406 560.3 446.081 547.518 466.133 531.888C468.881 529.747 470.268 527.603 470.259 523.724C470.241 516.042 476.695 510.83 484.202 511.476C491.584 512.112 496.812 518.503 496.073 525.987C495.355 533.258 488.799 538.35 481.436 537.836C479.299 537.686 476.553 538.248 474.958 539.551C453.929 556.725 430.794 570.223 405.557 580.196C404.157 580.748 402.592 582.134 402.089 583.495C399.32 590.986 392.476 594.67 385.045 592.349C378.337 590.254 374.921 583.38 376.907 575.918C377.159 574.968 377.555 574.057 378.059 572.788Z" fill="#FAF9FA"/>
<path d="M134.421 511.821C145.207 510.294 150.94 515.085 151.922 525.42C152.117 527.477 153.881 529.84 155.597 531.226C173.042 545.321 192.296 556.437 212.819 565.404C214.799 566.269 216.747 567.374 218.826 567.799C220.632 568.169 222.884 568.315 224.453 567.555C231.311 564.235 239.862 567.046 243.067 573.998C246.158 580.703 242.987 588.916 236.307 591.502C228.479 594.533 221.006 590.872 218.361 583.042C217.799 581.381 216.211 579.477 214.63 578.839C190.093 568.933 167.247 556.211 146.901 539.151C145.632 538.087 143.43 537.535 141.74 537.677C134.164 538.311 128.518 535.022 126.59 528.449C124.566 521.554 127.372 515.346 134.421 511.821Z" fill="#FAF9FA"/>
<path d="M153.742 161.275C150.235 164.07 148.572 166.729 149.158 171.505C150.165 179.72 142.138 186.872 133.541 186.552C125.041 186.236 118.465 179.267 119.144 171.297C119.95 161.851 126.936 156.355 136.257 157.484C138.199 157.719 140.996 157.406 142.209 156.174C166.903 131.106 196.243 113.33 228.755 100.441C230.291 99.8322 231.799 99.1525 233.424 98.4617C235.512 101.872 237.575 105.239 239.938 109.098C207.674 120.637 178.66 137.268 153.742 161.275Z" fill="#F9F9FA"/>
<path d="M571.072 372.723C570.498 375.864 571.011 377.933 573.061 380.222C578.402 386.188 577.25 394.892 571.009 399.593C564.669 404.368 556.209 402.971 551.786 396.419C547.287 389.754 549.344 381.205 556.227 376.922C557.569 376.087 558.923 374.31 559.154 372.797C562.253 352.49 562.253 332.137 559.364 311.81C559.133 310.184 557.948 308.272 556.617 307.295C550.104 302.517 548.476 293.671 553.24 287.49C557.84 281.522 566.464 280.667 572.337 285.598C578.243 290.556 578.236 299.368 572.679 305.585C571.5 306.904 571.013 309.31 571.07 311.19C571.513 325.94 572.371 340.68 572.649 355.431C572.755 361.037 571.677 366.666 571.072 372.723Z" fill="#F9F9F9"/>
<path d="M499.417 161.083C505.245 168.086 505.041 175.659 499.161 180.741C493.783 185.389 485.27 185 480.971 179.14C478.991 176.44 478.823 172.434 477.724 169.057C477.074 167.059 476.739 164.582 475.362 163.252C450.063 138.812 420.087 122.127 387.12 110.466C385.252 109.805 383.41 109.068 381.192 108.228C382.251 106.376 383.194 104.721 384.143 103.069C385.036 101.513 385.935 99.96 386.991 98.1307C405.617 104.601 423.466 112.459 440.473 122.289C456.55 131.582 470.959 143.001 484.558 155.559C485.881 156.78 488.189 156.932 490.037 157.587C493.076 158.663 496.113 159.745 499.417 161.083Z" fill="#F9F9F9"/>
<path d="M62.7092 282.699C74.6054 288.561 75.4686 300.42 65.0264 307.621C63.8229 308.451 62.9513 310.415 62.7568 311.958C59.1083 340.905 60.9426 369.631 66.4804 398.19C66.7297 399.476 66.9447 400.768 67.1968 402.175C63.0384 402.175 59.0829 402.175 54.5302 402.175C53.4208 394.207 51.9309 386.396 51.3259 378.518C50.2849 364.964 49.3688 351.373 49.2241 337.789C49.1274 328.699 50.5383 319.598 51.0672 310.491C51.1589 308.912 50.6693 306.883 49.6741 305.73C44.9886 300.3 43.8593 294.27 46.9075 288.834C49.8681 283.555 55.2742 281.376 62.7092 282.699Z" fill="#F8F8F8"/>
</svg>
