<svg width="682" height="518" viewBox="0 0 682 518" fill="none" xmlns="http://www.w3.org/2000/svg">
<path d="M236.045 483.096C235.88 483.043 235.715 482.99 235.075 482.667C234.096 480.569 233.593 478.74 233.192 476.471C233.235 473.323 233.176 470.617 233.221 467.451C233.244 443.315 233.162 419.636 233.08 395.958C233.15 394.226 233.22 392.494 233.303 389.958C233.26 383.997 233.204 378.84 233.147 373.683C233.206 373.283 233.265 372.883 233.329 371.817C233.26 368.404 233.186 365.658 233.215 362.453C233.241 356.3 233.164 350.605 233.191 344.462C233.235 340.647 233.175 337.279 233.221 333.456C233.252 328.303 233.175 323.607 233.202 318.582C233.239 317.807 233.173 317.359 233.211 316.46C233.241 312.31 233.166 308.61 233.192 304.482C233.225 302.006 233.157 299.958 233.19 297.466C233.221 293.984 233.152 290.947 233.187 287.452C233.225 281.3 233.158 275.606 233.194 269.463C233.238 265.646 233.179 262.278 233.226 258.452C233.331 249.086 233.331 240.178 233.331 231.37C200.195 231.37 167.821 231.37 135.45 231.37C135.323 232.215 135.188 232.697 135.187 233.178C135.114 291.458 135.038 349.738 135.072 408.018C135.073 409.354 136.334 410.688 137.053 412.255C137.248 412.806 137.499 412.973 137.942 413.29C138.689 414.072 139.347 414.551 139.976 415.451C141.98 423.258 140.014 430.815 135.278 433.824C130.14 437.089 123.779 436.335 117.677 431.739C113.134 424.765 113.447 418.112 118.713 411.571C119.611 410.455 119.947 408.602 119.948 407.089C119.99 346.102 119.971 285.115 119.937 224.128C119.933 216.997 120.882 215.975 127.826 215.979C165.152 216 202.477 216.009 239.803 216.023C247.027 216.026 248.187 217.172 248.185 224.381C248.164 303.865 248.138 383.348 248.114 462.831C248.113 464.648 248.114 466.465 248.114 468.972C249.878 468.972 251.462 468.972 253.046 468.972C304.535 468.984 356.024 468.994 407.513 469.01C423.497 469.015 439.481 469.058 455.465 469.04C462.619 469.032 464.145 470.54 463.987 477.804C463.965 478.799 463.804 479.792 463.507 481.36C461.659 482.304 460.02 482.93 458.36 482.994C453.648 483.175 448.927 483.126 443.822 483.079C440.247 483.051 437.06 483.111 433.681 483.098C433.491 483.025 433.115 483.186 432.679 483.101C430.472 483.07 428.7 483.124 426.75 483.098C426.571 483.017 426.207 483.162 425.906 483.074C424.362 483.048 423.117 483.111 421.426 483.089C389.155 483.008 357.329 482.992 325.504 483.019C298.35 483.042 271.196 483.114 243.648 483.079C242.189 483.056 241.123 483.116 239.662 483.095C238.192 483.041 237.119 483.069 236.045 483.096Z" fill="#FAFAFA"/>
<path d="M301.009 16.1541C300.935 31.965 300.859 47.2977 301.001 62.6283C301.019 64.5645 301.812 66.7383 302.892 68.375C306.493 73.8305 306.096 81.9923 301.746 85.82C296.843 90.1343 289.14 89.9941 284.44 85.5051C279.817 81.0904 279.729 73.2829 284.035 67.7985C284.941 66.644 285.602 64.9462 285.613 63.4927C285.758 45.1633 285.744 26.8328 285.813 8.50267C285.844 0.196243 286.082 0.00228897 294.152 0.00247197C335.148 0.00340297 376.144 0.00125205 417.141 4.54221e-08C424.173 -0.000212955 424.962 0.748444 424.963 7.61922C424.984 156.773 424.999 305.926 425.016 455.079C425.016 456.38 425.016 457.68 425.016 459.823C419.964 459.823 415.263 459.823 410.088 459.823C410.088 311.628 410.088 163.562 410.088 14.9763C408.188 14.9763 406.756 14.9761 405.323 14.9763C372.326 14.9822 339.329 14.9777 306.332 15.023C304.579 15.0254 302.827 15.4481 301.009 16.1541Z" fill="#FBFBFB"/>
<path d="M562.531 292.025C562.437 295.39 562.343 298.755 562.258 302.941C562.335 305.473 562.403 307.184 562.47 308.894C562.402 317.635 562.334 326.376 562.281 335.928C562.368 338.124 562.441 339.509 562.514 340.894C562.435 347.933 562.356 354.973 562.287 362.921C562.364 367.851 562.433 371.873 562.501 375.894C562.427 377.299 562.352 378.703 562.288 380.955C562.36 385.243 562.42 388.684 562.48 392.125C562.422 397.615 562.146 403.117 562.435 408.589C562.525 410.304 563.991 412.042 565.079 413.593C568.628 418.652 568.977 425.571 565.771 429.995C562.462 434.562 556.259 436.64 550.71 435.041C542.413 432.65 538.947 422.488 544.267 414.692C546.499 411.42 547.128 408.278 547.125 404.55C547.067 339.051 547.076 273.552 547.071 208.053C547.071 206.25 547.071 204.448 547.071 202.349C519.628 202.349 492.555 202.349 464.962 202.349C464.962 214.598 464.911 226.707 465.049 238.813C465.062 239.888 466.211 241.028 467 242.003C471.304 247.321 471.272 255.22 466.87 259.854C462.05 264.928 454.939 265.333 449.296 260.857C444.104 256.738 442.65 249.079 446.868 243.397C449.478 239.881 449.933 236.45 449.891 232.419C449.753 219.421 449.829 206.42 449.847 193.42C449.854 188.314 451.27 186.871 456.292 186.867C489.458 186.841 522.625 186.882 555.79 186.757C560.647 186.739 562.33 188.978 562.276 193.434C562.204 199.266 562.263 205.1 562.297 211.677C562.39 212.614 562.453 212.807 562.515 213C562.444 238.302 562.374 263.605 562.318 289.721C562.4 291.032 562.466 291.528 562.531 292.025Z" fill="#FCFCFC"/>
<path d="M312.632 241.601C312.538 245.874 312.445 250.148 312.36 255.465C312.437 258.68 312.504 260.853 312.572 263.025C312.504 274.126 312.436 285.227 312.383 297.358C312.47 300.147 312.542 301.906 312.615 303.664C312.536 312.605 312.458 321.545 312.389 331.639C312.466 337.901 312.534 343.008 312.603 348.115C312.528 349.899 312.454 351.683 312.391 354.542C312.462 359.988 312.522 364.358 312.582 368.728C312.524 375.701 312.249 382.688 312.536 389.637C312.626 391.816 314.086 394.023 315.169 395.993C318.701 402.418 319.049 411.205 315.857 416.823C312.563 422.623 306.389 425.263 300.865 423.232C292.606 420.196 289.156 407.29 294.452 397.388C296.674 393.233 297.3 389.242 297.297 384.509C297.239 301.324 297.248 218.14 297.243 134.956C297.243 132.667 297.243 130.378 297.243 127.712C269.927 127.712 242.977 127.712 215.511 127.712C215.511 143.269 215.461 158.646 215.599 174.021C215.611 175.386 216.755 176.835 217.54 178.073C221.825 184.826 221.792 194.859 217.411 200.744C212.614 207.187 205.535 207.703 199.918 202.018C194.749 196.786 193.302 187.059 197.501 179.843C200.098 175.378 200.552 171.021 200.51 165.901C200.373 149.393 200.449 132.882 200.466 116.373C200.473 109.888 201.882 108.055 206.881 108.05C239.895 108.017 272.909 108.07 305.922 107.911C310.757 107.888 312.432 110.731 312.378 116.39C312.307 123.797 312.365 131.206 312.399 139.559C312.492 140.748 312.554 140.994 312.616 141.239C312.546 173.373 312.475 205.507 312.421 238.675C312.501 240.34 312.567 240.97 312.632 241.601Z" fill="#FCFCFC"/>
<path d="M154.636 467.045C159.254 459.639 165.641 454.689 174.298 452.9C187.851 450.1 202.013 457.79 206.985 470.644C212.04 483.714 206.496 498.867 194.085 505.908C176.835 515.692 156.543 506.888 151.763 487.549C151.449 486.279 151.105 485.017 150.603 483.09C144.286 483.09 137.842 483.091 131.398 483.089C97.4091 483.078 63.4199 483.016 29.4317 483.164C27.1052 483.174 24.4024 484.263 22.533 485.705C16.3668 490.459 8.75309 490.384 3.56661 485.062C-1.22816 480.142 -1.18273 471.804 3.66774 466.502C8.36297 461.37 16.068 461.228 22.2362 465.657C24.2909 467.132 27.1637 468.203 29.6664 468.211C70.4855 468.339 111.305 468.268 152.933 468.158C154.04 467.732 154.338 467.388 154.636 467.045ZM189.109 493.643C190.251 492.446 191.53 491.351 192.51 490.034C196.288 484.956 196.41 477.52 192.912 472.312C189.189 466.768 183.24 464.438 176.477 465.875C169.893 467.274 164.994 472.23 164.176 478.593C163.363 484.916 165.704 490.1 170.835 493.711C176.509 497.705 182.519 497.84 189.109 493.643Z" fill="#F8F8F8"/>
<path d="M472.922 486.908C472.794 483.895 472.667 480.882 472.692 477.203C472.888 475.662 472.932 474.785 472.975 473.909C477.205 462.054 484.901 454.172 497.869 452.613C506.971 451.519 514.788 454.554 521.963 461.078C525.532 464.444 526.695 468.71 533.02 468.639C573.466 468.18 613.921 468.517 654.373 468.51C655.451 468.51 656.529 467.575 657.607 467.076C667.112 458.998 678.085 461.516 681.164 472.483C682.909 478.695 681.125 483.452 675.691 487.083C670.896 490.287 664.294 490.233 659.986 486.217C657.288 483.702 654.565 483.096 651.102 483.102C613.297 483.169 575.491 483.112 537.685 483.089C535.382 483.087 533.079 483.089 530.952 483.089C525.009 502.004 516.033 509.656 499.071 509.888C496.303 509.601 494.295 509.656 492.498 509.068C481.669 505.53 476.144 497.216 472.922 486.908ZM505.417 496.031C506.904 495.328 508.498 494.789 509.859 493.895C516.797 489.337 518.899 480.564 514.878 473.332C511.031 466.41 502.548 463.54 495.126 466.648C487.394 469.887 483.841 477.444 486.313 485.394C488.726 493.153 496.682 497.808 505.417 496.031Z" fill="#F7F7F8"/>
<path d="M349.164 497.282C353.462 497.388 357.76 497.494 362.892 497.573C364.533 497.449 365.341 497.351 366.149 497.253C383.217 497.373 400.284 497.516 417.352 497.55C418.318 497.552 419.443 496.833 420.228 496.145C425.835 491.228 431.844 490.239 436.904 493.513C442.311 497.012 443.842 502.859 441.245 510.545C433.877 518.714 428.122 519.075 420.22 512.492C419.131 511.585 417.296 511.201 415.806 511.202C358.048 511.208 300.289 511.294 242.531 511.348C234.875 511.355 227.217 511.142 219.562 511.237C214.917 511.294 213.478 508.982 213.592 504.71C213.725 499.738 215.298 497.638 219.674 497.584C224.833 497.521 229.993 497.578 235.608 497.456C240.067 497.408 244.071 497.486 248.903 497.542C250.536 497.428 251.341 497.336 252.146 497.244C266.11 497.355 280.074 497.466 294.927 497.566C298.268 497.467 300.72 497.378 303.172 497.289C311.793 497.397 320.415 497.504 329.895 497.588C331.889 497.465 333.023 497.365 334.158 497.265C337.462 497.375 340.766 497.484 344.914 497.571C346.893 497.461 348.029 497.372 349.164 497.282Z" fill="#FAFAFA"/>
<path d="M562.848 375.745C562.433 371.873 562.364 367.851 562.401 363.378C562.735 367.149 562.965 371.372 562.848 375.745Z" fill="#030205"/>
<path d="M562.847 391.885C562.42 388.684 562.36 385.243 562.402 381.364C562.741 384.499 562.978 388.072 562.847 391.885Z" fill="#030205"/>
<path d="M562.789 308.775C562.403 307.184 562.335 305.473 562.365 303.344C562.677 304.836 562.892 306.746 562.789 308.775Z" fill="#030205"/>
<path d="M562.819 340.78C562.441 339.509 562.368 338.124 562.395 336.333C562.704 337.507 562.914 339.087 562.819 340.78Z" fill="#030205"/>
<path d="M472.641 473.972C472.932 474.785 472.888 475.662 472.628 476.788C472.376 476.037 472.341 475.036 472.641 473.972Z" fill="#131116"/>
<path d="M562.833 291.877C562.465 291.528 562.4 291.032 562.435 290.17C562.736 290.446 562.936 291.088 562.833 291.877Z" fill="#030205"/>
<path d="M154.317 467.11C154.338 467.388 154.04 467.732 153.387 468.035C153.354 467.721 153.677 467.448 154.317 467.11Z" fill="#030205"/>
<path d="M562.748 212.898C562.453 212.807 562.39 212.614 562.413 212.128C562.659 212.155 562.82 212.475 562.748 212.898Z" fill="#030205"/>
<path d="M443.822 483.079C440.9 483.436 437.591 483.705 434.077 483.572C437.06 483.111 440.247 483.051 443.822 483.079Z" fill="#151418"/>
<path d="M425.906 483.074C424.881 483.42 423.555 483.677 422.051 483.554C423.117 483.111 424.362 483.048 425.906 483.074Z" fill="#151418"/>
<path d="M243.648 483.079C242.767 483.379 241.493 483.593 240.138 483.492C241.123 483.116 242.189 483.055 243.648 483.079Z" fill="#0C0A0E"/>
<path d="M432.679 483.101C431.173 483.446 429.23 483.706 427.108 483.572C428.7 483.124 430.472 483.07 432.679 483.101Z" fill="#0C0A0E"/>
<path d="M137.942 413.29C138.545 413.439 139.238 413.891 139.968 414.687C139.347 414.551 138.689 414.072 137.942 413.29Z" fill="#151418"/>
<path d="M302.931 496.945C300.72 497.378 298.268 497.466 295.371 497.432C297.514 497.073 300.102 496.837 302.931 496.945Z" fill="#030205"/>
<path d="M333.952 496.945C333.023 497.365 331.889 497.465 330.339 497.451C331.197 497.1 332.472 496.862 333.952 496.945Z" fill="#030205"/>
<path d="M348.959 496.961C348.029 497.372 346.893 497.461 345.344 497.431C346.205 497.088 347.48 496.864 348.959 496.961Z" fill="#030205"/>
<path d="M251.962 496.941C251.341 497.336 250.536 497.428 249.339 497.395C249.891 497.06 250.834 496.849 251.962 496.941Z" fill="#030205"/>
<path d="M365.963 496.947C365.341 497.351 364.533 497.449 363.33 497.432C363.882 497.092 364.83 496.866 365.963 496.947Z" fill="#030205"/>
</svg>
