<svg width="552" height="687" viewBox="0 0 552 687" fill="none" xmlns="http://www.w3.org/2000/svg">
<path d="M273.649 498.754C273.65 353.304 273.65 208.333 273.65 63.3658C262.433 59.3371 254.387 52.5486 250.678 41.1622C246.028 26.8856 252.32 11.0231 265.627 4.04502C280.394 -3.6988 297.088 -0.113348 307.3 12.9954C316.378 24.6492 315.588 42.0316 305.136 52.8816C302.182 55.9481 298.676 58.9296 294.835 60.5729C290.72 62.333 290.211 64.7708 290.217 68.5894C290.306 124.419 290.266 180.249 290.271 236.079C290.28 361.905 290.343 487.731 290.178 613.557C290.17 619.788 291.332 623.346 297.479 626.476C311.253 633.491 316.582 648.182 312.425 663.585C308.798 677.027 296.358 686.561 282.102 686.826C267.502 687.097 254.417 677.487 250.249 663.433C245.638 647.887 252.641 631.751 267.693 625.315C272.685 623.18 273.689 620.527 273.673 615.721C273.543 576.892 273.628 538.062 273.649 498.754ZM282.128 638.756C278.862 639.83 275.238 640.325 272.399 642.086C264.489 646.992 263.203 657.902 269.342 664.573C274.302 669.964 281.618 671.613 287.988 668.777C294.032 666.086 298.062 659.251 297.233 653.096C296.173 645.23 291.412 640.454 282.128 638.756ZM282.071 47.3096C289.607 46.6128 294.211 42.2882 296.319 35.2981C297.864 30.1746 295.117 22.8214 290.637 19.7655C285.058 15.9593 279.165 15.7587 273.242 19.0326C267.626 22.137 264.657 28.5073 265.865 34.6265C267.246 41.6212 272.743 46.1656 282.071 47.3096Z" fill="#F7F7F7"/>
<path d="M442.65 352.186C456.815 352.12 470.479 352.055 484.143 351.975C484.461 351.973 484.778 351.82 485.094 351.732C492.143 333.8 502.135 326.276 518.577 326.515C537.993 326.797 552.215 342.012 551.053 361.257C549.916 380.072 532.788 394.215 513.926 391.983C501.653 390.53 492.652 384.362 487.791 373.029C486.26 369.459 484.321 369.006 481.076 369.01C424.083 369.087 367.09 369.079 310.097 369.089C309.1 369.089 308.104 369.089 306.784 369.089C306.784 363.538 306.784 358.122 306.784 352.185C351.946 352.185 397.048 352.185 442.65 352.186ZM504.661 349.581C504.214 350.282 503.708 350.953 503.331 351.689C499.876 358.439 501.057 366.065 506.29 370.947C511.656 375.952 520.536 376.887 526.715 373.097C532.956 369.27 535.842 361.601 533.732 354.452C530.123 342.223 515.18 339.367 504.661 349.581Z" fill="#F9F9F9"/>
<path d="M16.8066 487.777C-3.77465 475.939 -5.16395 448.898 11.0512 434.479C27.8946 419.501 54.4196 425.502 62.9291 446.414C63.4866 447.784 63.9911 449.176 64.6284 450.84C128.406 450.84 192.148 450.84 256.282 450.84C256.282 456.401 256.282 461.642 256.282 467.677C254.382 467.677 252.296 467.677 250.21 467.677C190.084 467.693 129.958 467.736 69.8314 467.654C66.1455 467.649 64.1565 468.324 62.5041 472.189C55.0408 489.644 35.3774 496.277 16.8066 487.777ZM33.122 475.003C40.8895 474.257 46.1724 470.435 47.9514 463.817C49.6565 457.475 48.8953 451.56 43.6595 446.921C38.5414 442.386 31.6049 441.535 25.5161 444.595C19.4268 447.656 15.4972 455.086 16.5354 461.576C17.7531 469.19 23.2146 473.849 33.122 475.003Z" fill="#F9F8F9"/>
<path d="M478.453 521.346C460.468 521.267 442.483 521.136 424.498 521.121C386.675 521.088 348.853 521.118 311.03 521.111C309.711 521.111 308.392 520.999 306.796 520.926C306.796 515.36 306.796 509.942 306.796 504.231C364.385 504.231 421.809 504.231 477.804 504.231C482.423 497.97 485.752 491.938 490.487 487.36C500.07 478.095 516.587 477.081 528.704 484.051C540.471 490.82 546.879 505.094 544.26 518.701C541.646 532.278 530.357 543.102 516.87 544.961C500.511 547.216 486.844 539.104 480.243 522.666C479.455 521.743 478.954 521.545 478.453 521.346ZM526.936 506.608C523.248 498.887 515.948 495.189 507.799 496.915C500.591 498.441 495.618 504.344 495.321 511.726C495.007 519.544 499.924 526.107 507.74 528.306C519.895 531.726 529.851 521.049 526.936 506.608Z" fill="#F9F8F9"/>
<path d="M127.65 296.246C170.76 296.246 213.369 296.246 256.339 296.246C256.339 301.977 256.339 307.221 256.339 312.893C197.088 312.893 137.727 312.893 78.3963 312.893C73.0377 327.627 62.9338 336.048 47.5941 337.167C31.6931 338.327 16.9546 326.467 14.1515 310.897C11.1221 294.07 20.2197 278.817 36.2889 273.782C52.3304 268.755 69.0676 275.654 75.597 290.596C77.5796 295.133 79.8425 296.446 84.6831 296.317C98.8293 295.939 112.993 296.222 127.65 296.246ZM34.629 293.405C33.9013 294.306 33.0639 295.14 32.4642 296.119C28.9624 301.836 28.4564 307.633 32.3129 313.406C35.9176 318.802 43.306 322.105 49.1708 320.655C55.9418 318.981 60.7206 315.12 62.1012 307.825C63.3647 301.15 60.9135 294.808 55.5204 291.361C49.2789 287.372 41.9394 287.926 34.629 293.405Z" fill="#F9F8F8"/>
<path d="M526.668 195.724C528.182 209.284 524.303 220.393 513.26 228.006C502.629 235.334 491.023 236.414 479.108 230.936C471.793 227.572 466.674 221.915 463.824 214.53C462.494 211.082 460.721 210.313 457.292 210.32C408.97 210.421 360.648 210.375 312.325 210.365C310.533 210.365 308.742 210.365 306.705 210.365C306.705 204.652 306.705 199.376 306.705 193.462C358.376 193.462 410.073 193.462 461.531 193.462C467.952 176.087 480.569 167.092 496.271 168.227C511.865 169.354 523.271 179.529 526.668 195.724ZM486.415 186.889C478.481 191.73 475.696 199.268 478.906 207.221C481.827 214.458 490.174 218.886 497.537 217.104C506.929 214.832 512.254 205.719 509.65 196.406C507.075 187.194 495.45 182.087 486.415 186.889Z" fill="#F9F9F9"/>
<path d="M255.365 149.808C199.775 149.863 144.661 149.863 91.1725 149.863C86.0144 156.415 82.3623 162.951 77.0129 167.485C62.4938 179.789 40.4037 176.016 29.7213 160.183C19.3264 144.777 24.6691 123.091 41.1028 113.986C58.1262 104.555 78.8047 111.06 86.5994 128.56C88.1154 131.964 89.828 133.107 93.5598 133.098C144.685 132.98 195.811 133.041 246.936 133.058C249.915 133.059 252.894 133.059 257.004 133.059C256.6 138.869 256.221 144.311 255.365 149.808ZM55.6307 126.542C54.1977 126.949 52.722 127.245 51.3387 127.78C44.8402 130.295 40.9702 134.976 40.6451 142.002C40.36 148.165 43.1157 153.004 48.5904 155.904C54.8098 159.198 61.0619 159.246 66.9037 154.877C71.9384 151.112 74.2676 144.067 72.1764 137.857C69.6768 130.434 64.1332 126.778 55.6307 126.542Z" fill="#F9F9F9"/>
<path d="M478.668 521.673C478.955 521.544 479.455 521.743 480.08 522.368C479.763 522.53 479.323 522.265 478.668 521.673Z" fill="#171115"/>
</svg>
