<svg width="1070" height="1116" viewBox="0 0 1070 1116" fill="none" xmlns="http://www.w3.org/2000/svg">
<path d="M402.123 393.185C360.029 427.308 330.09 469.127 314.884 520.201C309.724 537.534 305.553 555.112 304.702 573.18C304.252 582.752 310.202 588.924 318.74 589.112C327.144 589.297 333.692 583.04 334.192 574.094C335.911 543.393 344.806 514.468 359.698 487.524C396.041 421.768 453.586 381.654 527.705 362.181C563.881 352.676 600.875 352.946 637.931 353.193C646.302 353.249 650.769 355.376 654.163 363.295C665.539 389.834 693.983 403.159 724.339 397.278C752.379 391.846 772.483 368.462 773.063 340.605C773.618 313.978 753.375 289.316 726.218 283.534C695.398 276.972 665.23 290.601 653.946 317.113C650.854 324.378 646.813 326.724 639.106 326.517C623.642 326.101 608.149 326.076 592.683 326.442C521.839 328.119 458.156 348.845 402.123 393.185ZM283.814 995.819C176.731 931.283 99.3316 843.328 54.918 729.306C51.2805 719.968 43.3034 715.931 35.1065 718.724C26.4285 721.68 23.3679 729.619 27.2202 739.643C51.8403 803.711 87.6186 861.489 135.121 912.303C216.656 999.522 317.125 1057.86 434.245 1090.2C509.614 1111.01 586.796 1116.57 664.825 1114.89C693.038 1114.28 721.197 1112.99 749.241 1109.99C759.764 1108.86 765.194 1102.26 763.699 1093.64C762.205 1085.02 756.027 1081.32 745.597 1082.39C673.238 1089.83 600.927 1091.11 528.669 1081.05C441.355 1068.89 359.736 1041.74 283.814 995.819ZM372.291 879.554C367.639 876.812 362.936 874.146 358.343 871.316C302.356 836.821 258.102 791.732 225.537 736.085C219.058 725.012 210.77 721.48 202.245 725.99C193.432 730.652 192.502 737.973 199.567 749.919C224.493 792.067 255.725 829.101 294.654 860.313C386.392 933.869 492.199 970.537 611.347 973.865C641.418 974.705 639.874 968.367 640.574 946.801C641.698 912.212 643.822 877.652 643.763 843.03C643.74 829.03 637.947 823.774 623.254 823.579C613.251 823.447 603.242 823.078 593.257 822.484C543.6 819.531 497.039 806.5 454.844 781.074C393.079 743.855 353.459 691.213 337.615 622.577C335.316 612.614 328.724 607.971 319.625 609.618C311.266 611.132 306.731 618.565 308.953 627.717C333.15 727.398 396.262 794.348 495.448 830.537C529.741 843.049 565.471 849.203 602.21 850.172C615.633 850.525 616.029 851.383 615.514 863.903C614.489 888.881 613.204 913.851 612.456 938.836C612.267 945.131 609.558 946.716 603.588 946.638C589.892 946.459 576.368 944.839 562.837 943.094C495.272 934.38 431.67 914.705 372.291 879.554ZM55.1261 369.445C52.1375 375.49 49.1078 381.516 46.1666 387.582C5.18172 472.111 -7.78168 560.726 4.3684 652.924C5.14565 658.822 5.17492 664.06 3.14345 669.88C-1.13464 682.136 9.17533 696.334 22.2856 697.453C30.7532 698.175 37.1641 694.896 41.0729 687.764C45.9882 678.796 44.0386 670.014 38.1283 662.397C35.2453 658.681 33.6519 655.063 33.0085 650.679C25.9327 602.463 26.8647 554.418 36.6928 506.628C50.562 439.188 78.5668 377.489 119.555 321.177C190.338 223.934 283.53 152.875 396.379 105.427C443.486 85.6206 492.799 72.1707 543.956 65.7081C581.929 60.9109 620.002 58.8256 658.267 62.5968C665.372 63.297 669.227 65.6753 671.75 72.6775C681.994 101.109 711.1 116.779 741.801 110.399C766.467 105.273 782.863 91.0341 788.736 66.9923C793.784 46.3302 784.493 24.2277 766.582 11.4816C736.245 -10.1077 688.901 0.138069 674.865 30.606C672.47 35.8028 668.697 37.0536 663.208 36.2868C628.749 31.4727 594.317 33.0809 559.819 36.3596C466.665 45.213 380.438 74.0747 301.08 120.902C196.715 182.487 112.924 263.413 55.1261 369.445ZM482.617 201.678C476.244 203.555 469.814 205.27 463.508 207.333C403.51 226.954 350.056 257.709 303.139 298.101C232.067 359.288 181.526 432.733 163.306 524.253C151.63 582.904 156.513 640.548 174.768 697.359C177.597 706.164 185.126 709.84 193.847 707.232C202.511 704.64 206.407 696.571 203.136 687.697C178.293 620.286 180.272 552.64 204.03 485.779C231.897 407.359 284.071 345.534 352.409 295.96C432.074 238.17 522.268 210.306 622.086 210.382C684.609 210.429 746.989 213.721 809.384 216.946C852.37 219.168 895.415 220.29 938.335 223.827C945.02 224.378 947.734 226.778 949.667 232.433C956.812 253.346 972.664 265.263 994.27 270.929C1028.08 279.796 1071.81 256.38 1069.59 212.266C1068.27 185.816 1047.77 164.457 1021.9 159.276C993.782 153.643 966.258 165.684 953.154 190.096C950.048 195.883 946.269 197.116 940.197 196.749C885.445 193.442 830.707 189.767 775.912 187.29C725.02 184.989 674.105 183.118 623.112 183.004C575.751 182.898 529.384 188.11 482.617 201.678Z" fill="black"/>
</svg>
