<svg width="623" height="673" viewBox="0 0 623 673" fill="none" xmlns="http://www.w3.org/2000/svg">
<path d="M600.845 307.991C598.92 296.413 597.025 285.285 595.101 273.983C599.394 272.091 603.756 270.17 608.874 267.916C622.607 325.212 621.364 381.487 601.475 437.11C626.069 459.871 626.649 489.107 613.937 510.773C601.12 532.618 574.618 545.126 545.467 536.151C531.894 548.846 519.262 561.971 505.296 573.478C464.013 607.491 416.891 629.214 363.98 637.959C361.137 638.429 359.48 639.394 358.19 642.169C348.367 663.283 325.55 674.98 301.576 671.436C279.084 668.111 260.227 649.202 257.054 626.791C252.853 597.11 273.202 569.827 302.635 565.678C332.245 561.503 359.041 581.903 363.237 611.882C363.694 615.146 363.736 618.468 364.022 622.48C430.172 609.933 485.228 578.417 530.013 528.393C504.932 508.816 499.147 475.497 515.086 450.512C528.933 428.808 557.559 415.822 588.155 429.052C601.706 389.722 605.853 349.595 600.845 307.991ZM551.591 520.71C553.034 521.089 554.464 521.533 555.924 521.838C575.1 525.852 595.328 514.961 602.469 496.796C610.091 477.407 602.591 456.33 584.263 445.632C567.277 435.718 544.888 439.808 532.293 454.906C512.065 479.153 525.98 512.896 551.591 520.71ZM342.39 600.796C333.604 586.387 318.994 579.289 303.146 582.614C288.455 585.697 278.438 594.76 274.392 609.279C270.424 623.517 274.644 636.027 285.355 645.903C298.391 657.922 318.778 658.729 332.233 648.257C344.219 638.929 352.911 620.016 342.39 600.796Z" fill="black"/>
<path d="M608.524 268.616C622.089 325.627 620.79 381.608 601.004 436.941L600.893 437.253L601.136 437.477C625.545 460.066 626.108 489.041 613.506 510.52C600.802 532.171 574.537 544.578 545.614 535.674L545.337 535.588L545.125 535.786C531.526 548.506 518.928 561.598 504.978 573.092C463.761 607.05 416.721 628.735 363.899 637.466C362.443 637.707 361.235 638.082 360.218 638.789C359.195 639.5 358.408 640.515 357.736 641.958C348.013 662.858 325.419 674.455 301.649 670.941C279.375 667.649 260.691 648.911 257.55 626.721C253.386 597.31 273.549 570.283 302.705 566.173C332.036 562.038 358.584 582.241 362.742 611.951C363.196 615.194 363.234 618.464 363.522 622.515L363.562 623.075L364.114 622.971C430.374 610.404 485.528 578.832 530.386 528.727L530.742 528.327L530.32 527.998C505.433 508.573 499.714 475.537 515.508 450.781C529.237 429.262 557.609 416.389 587.957 429.511L588.452 429.725L588.628 429.215C602.204 389.812 606.358 349.608 601.341 307.931L601.34 307.92L601.338 307.908C599.435 296.461 597.56 285.453 595.658 274.283C599.682 272.511 603.783 270.705 608.524 268.616ZM342.396 599.858C333.471 585.745 318.871 578.804 303.043 582.125C288.175 585.245 278.008 594.44 273.91 609.145C269.887 623.58 274.181 636.28 285.017 646.27C298.229 658.452 318.888 659.276 332.54 648.651C344.667 639.213 353.496 620.044 342.828 600.556L342.823 600.546L342.817 600.536L342.396 599.858ZM584.515 445.2C567.315 435.161 544.659 439.303 531.909 454.586C511.428 479.137 525.53 513.281 551.444 521.187L551.464 521.193C552.878 521.565 554.347 522.019 555.821 522.327C575.235 526.391 595.705 515.372 602.935 496.979C610.649 477.354 603.05 456.018 584.515 445.2Z" stroke="black" stroke-opacity="0.666667"/>
<path d="M92.3286 243.803C75.2923 260.536 55.7372 264.149 32.8856 256.451C16.0681 307.522 15.115 359.123 27.9206 411.355C23.3356 413.64 18.8994 415.851 13.4539 418.566C10.9805 404.691 7.97725 391.212 6.27475 377.571C3.05112 351.741 2.76062 325.758 7.1685 300.065C9.88638 284.222 14.3274 268.663 18.3287 253.062C19.0815 250.127 19.1843 248.326 16.7946 246.169C-2.14931 229.074 -4.74196 200.515 7.37517 180.419C20.6664 158.376 46.0124 149.343 71.1068 157.547C71.4197 157.649 71.7558 157.681 71.0969 157.55C83.8345 144.633 95.6657 131.554 108.631 119.717C134.299 96.2809 163.697 78.5484 195.958 65.6024C198.591 64.5456 200.516 63.5061 201.742 60.3698C204.434 53.4822 212.963 50.8461 219.875 54.0376C227.034 57.3427 230.079 65.6695 226.815 73.0112C224.006 79.3288 215.578 82.7555 209.058 79.7105C206.221 78.3854 204.009 78.3492 201.248 79.541C158.91 97.8183 121.909 123.485 91.6324 158.492C89.6872 160.742 87.9085 163.135 85.894 165.659C98.8352 176.161 105.852 189.668 106.346 206.153C106.772 220.337 102.359 232.994 92.3286 243.803ZM48.0259 243.557C64.7715 245.484 79.1457 238.049 86.0479 223.891C93.3164 208.982 90.6133 193.291 78.7238 181.376C67.8755 170.505 50.6131 168.004 36.2664 175.225C22.6954 182.056 14.5926 197.595 16.8548 212.451C19.2892 228.439 29.9496 239.363 48.0259 243.557Z" fill="black"/>
<path d="M202.208 60.5518C204.775 53.9837 212.962 51.396 219.666 54.4912C226.568 57.6782 229.515 65.7087 226.358 72.8086C223.659 78.88 215.527 82.1794 209.271 79.2578C207.808 78.5747 206.476 78.2092 205.135 78.1816C203.793 78.1541 202.478 78.4656 201.05 79.082C158.651 97.3856 121.585 123.094 91.2539 158.165C89.3007 160.424 87.5027 162.842 85.5029 165.348L85.1943 165.735L85.5791 166.048C98.4135 176.463 105.357 189.837 105.847 206.168C106.269 220.224 101.9 232.751 91.9658 243.458C83.5088 251.761 74.4484 256.789 64.6865 258.799C54.9175 260.81 44.4071 259.804 33.0449 255.977L32.5684 255.816L32.4111 256.294C15.604 307.333 14.6148 358.901 27.3408 411.084C23.0497 413.223 18.8633 415.31 13.8271 417.82C11.3721 404.151 8.44413 390.919 6.77051 377.509C3.55148 351.716 3.26345 325.784 7.66113 300.149C10.3745 284.333 14.8076 268.805 18.8135 253.187C19.1904 251.717 19.4309 250.442 19.2334 249.242C19.0311 248.014 18.383 246.929 17.1299 245.798C-1.6234 228.875 -4.19896 200.583 7.80371 180.677C20.8321 159.07 45.5455 150.078 70.1719 157.775L70.0889 157.86L71 158.041C71.0273 158.046 71.0526 158.052 71.0762 158.057C71.2142 158.095 71.3465 158.126 71.4141 158.133C71.4227 158.134 71.4402 158.136 71.4609 158.137C71.4711 158.137 71.4893 158.136 71.5117 158.135C71.5252 158.134 71.5832 158.13 71.6514 158.104C71.6851 158.092 71.7592 158.06 71.8301 157.988C71.9136 157.904 71.9847 157.771 71.9756 157.607C71.9712 157.531 71.9483 157.469 71.9248 157.42C84.5023 144.639 96.1753 131.766 108.968 120.086C134.587 96.6945 163.933 78.9924 196.144 66.0664C197.467 65.5354 198.667 64.9881 199.693 64.1533C200.731 63.3094 201.567 62.1917 202.208 60.5518ZM79.0781 181.023C68.0682 169.99 50.5694 167.466 36.042 174.778C22.2807 181.705 14.0652 197.453 16.3604 212.526C17.592 220.615 20.91 227.443 26.2207 232.779C31.5288 238.112 38.8033 241.93 47.9131 244.044L47.9404 244.051L47.9688 244.054C64.9052 246.003 79.4935 238.476 86.4971 224.11C93.8607 209.006 91.1149 193.086 79.0781 181.023Z" stroke="black" stroke-opacity="0.666667"/>
<path d="M199.638 621.815C152.991 603.575 113.496 575.798 80.887 538.312C78.2521 535.284 75.869 536.242 73.0241 536.973C47.8825 543.429 23.0935 533.834 9.14033 512.273C-11.9451 479.691 5.37782 435.32 42.9502 425.671C70.2409 418.663 97.9662 431.111 110.15 455.842C122.417 480.744 115.395 509.567 92.1524 528.137C130.607 571.656 177.535 601.37 233.629 616.718C234.163 621.893 234.703 627.129 235.384 633.733C223.354 629.737 211.673 625.856 199.638 621.815ZM97.2752 467.959C96.512 466.122 95.8603 464.229 94.9683 462.457C86.5265 445.684 66.8531 437.031 47.6393 441.597C29.819 445.831 15.8849 463.111 16.5089 481.289C17.1052 498.66 25.0771 511.982 41.2869 519.06C57.4261 526.107 72.8314 523.558 85.7817 511.755C98.5027 500.161 102.548 485.483 97.2752 467.959Z" fill="black"/>
<path d="M43.0742 426.156C70.143 419.205 97.6257 431.551 109.701 456.063C121.856 480.737 114.915 509.311 91.8398 527.747L91.4297 528.075L91.7773 528.468C130.219 571.973 177.123 601.707 233.166 617.108C233.668 621.97 234.177 626.912 234.807 633.014C226.039 630.102 217.451 627.248 208.768 624.346L199.798 621.341C153.235 603.13 113.815 575.402 81.2646 537.984C79.8685 536.379 78.4888 535.786 77.0527 535.733C75.6783 535.682 74.2718 536.136 72.8994 536.489C47.9635 542.892 23.3953 533.379 9.56055 512.001C-11.3394 479.706 5.83324 435.719 43.0742 426.156ZM95.415 462.232C86.8612 445.237 66.9453 436.496 47.5234 441.111C29.4866 445.397 15.3761 462.876 16.0088 481.306C16.6111 498.849 24.6818 512.355 41.0869 519.518C49.232 523.074 57.2159 524.219 64.8115 522.969C72.4071 521.72 79.5819 518.082 86.1182 512.124C92.5386 506.273 96.7892 499.625 98.7598 492.209C100.73 484.795 100.412 476.649 97.7539 467.815L97.7471 467.79L97.7373 467.767L97.1865 466.396C96.6399 465.007 96.0916 463.576 95.415 462.232Z" stroke="black" stroke-opacity="0.666667"/>
<path d="M428.588 66.0468C476.981 86.6998 517.811 116.683 549.528 158.286C580.961 146.721 608.285 164.335 617.712 186.622C628.512 212.157 618.866 240.608 594.675 254.154C571.339 267.221 540.766 260.3 525.283 238.332C511.384 218.612 511.237 186.462 536.232 165.84C498.78 119.109 451.06 87.7993 393.741 70.1365C393.962 65.2352 394.191 60.1609 394.474 53.8847C405.96 57.9562 417.107 61.9077 428.588 66.0468ZM582.863 173.97C580.807 173.322 578.78 172.559 576.691 172.044C562.575 168.559 546.139 175.329 538.107 187.886C529.913 200.697 530.442 218.047 539.376 229.515C549.027 241.903 564.485 246.853 579.495 242.361C594.12 237.984 604.259 225.111 605.582 209.24C606.745 195.294 597.772 181.079 582.863 173.97Z" fill="black"/>
<path d="M394.943 54.5819C406.202 58.573 417.145 62.4526 428.41 66.5136C476.724 87.1363 517.475 117.067 549.13 158.589L549.355 158.883L549.701 158.755C580.85 147.294 607.915 164.742 617.251 186.817C627.953 212.119 618.398 240.297 594.43 253.718C571.318 266.659 541.028 259.803 525.692 238.044C511.928 218.515 511.779 186.664 536.55 166.225L536.93 165.912L536.622 165.527C499.184 118.814 451.501 87.4854 394.256 69.7743C394.464 65.1688 394.681 60.3875 394.943 54.5819ZM576.811 171.559C562.479 168.02 545.829 174.887 537.686 187.617C529.385 200.595 529.91 218.177 538.982 229.822C548.759 242.372 564.43 247.391 579.638 242.84C594.472 238.401 604.742 225.345 606.081 209.281C607.263 195.091 598.138 180.7 583.078 173.519L583.046 173.504L583.013 173.493C580.994 172.856 578.919 172.079 576.811 171.559Z" stroke="black" stroke-opacity="0.666667"/>
<path d="M352.088 15.4555C387.411 48.4102 376.544 105.026 332.099 121.319C294.881 134.963 254.066 109.7 248.75 70.6803C245.472 46.614 258.91 19.1704 280.475 7.80535C304.249 -4.72401 330.819 -2.16551 352.088 15.4555ZM303.294 16.9825C277.881 21.829 261.461 44.3675 265.142 69.3477C268.955 95.2188 294.84 113.257 320.037 107.531C344.437 101.986 358.479 80.4652 356.672 59.4131C354.28 31.5449 332.021 14.1824 303.294 16.9825Z" fill="black"/>
<path d="M280.708 8.24805C304.298 -4.18434 330.644 -1.65283 351.756 15.8291C386.806 48.541 376.004 104.691 331.927 120.85C295.016 134.381 254.52 109.324 249.246 70.6133C245.994 46.7458 259.337 19.5108 280.708 8.24805ZM340.169 26.3047C330.601 18.7412 317.721 15.0734 303.245 16.4844L303.222 16.4873L303.2 16.4912C277.535 21.3859 260.926 44.1651 264.648 69.4209C268.503 95.5727 294.659 113.811 320.148 108.019C344.793 102.418 358.999 80.6693 357.171 59.3701C355.964 45.308 349.739 33.87 340.169 26.3047Z" stroke="black" stroke-opacity="0.666667"/>
<path d="M378.059 572.788C383.76 565.95 389.163 565.054 396.742 569.135C397.797 569.703 399.507 569.818 400.626 569.391C424.406 560.3 446.081 547.518 466.133 531.888C468.881 529.747 470.267 527.603 470.259 523.724C470.241 516.042 476.695 510.83 484.202 511.476C491.584 512.112 496.812 518.503 496.073 525.987C495.355 533.258 488.799 538.35 481.436 537.836C479.299 537.686 476.553 538.248 474.958 539.551C453.929 556.725 430.794 570.223 405.556 580.196C404.157 580.748 402.592 582.134 402.089 583.495C399.32 590.986 392.476 594.67 385.045 592.349C378.336 590.254 374.921 583.38 376.907 575.918C377.159 574.968 377.555 574.057 378.059 572.788Z" fill="black"/>
<path d="M470.758 523.723C470.742 516.369 476.909 511.351 484.159 511.975C491.256 512.586 496.288 518.724 495.576 525.938C494.887 532.915 488.589 537.833 481.47 537.336C479.257 537.182 476.369 537.753 474.642 539.164C453.654 556.304 430.563 569.777 405.373 579.731C404.606 580.034 403.813 580.555 403.146 581.176C402.481 581.795 401.907 582.544 401.62 583.322C400.273 586.966 397.946 589.656 395.083 591.159C392.222 592.66 388.791 592.996 385.194 591.873C378.779 589.869 375.463 583.29 377.39 576.046C377.628 575.152 377.995 574.298 378.493 573.048C381.287 569.714 383.954 567.893 386.79 567.358C389.642 566.819 392.767 567.562 396.505 569.576C397.111 569.902 397.877 570.086 398.627 570.135C399.378 570.185 400.161 570.104 400.805 569.858C424.637 560.747 446.355 547.938 466.441 532.283C467.844 531.189 468.936 530.067 469.67 528.694C470.407 527.317 470.763 525.725 470.758 523.723Z" stroke="black" stroke-opacity="0.666667"/>
<path d="M134.42 511.821C145.207 510.294 150.94 515.085 151.922 525.42C152.117 527.477 153.881 529.84 155.597 531.226C173.042 545.321 192.296 556.437 212.819 565.404C214.799 566.269 216.747 567.374 218.826 567.799C220.632 568.169 222.884 568.315 224.453 567.555C231.311 564.235 239.861 567.046 243.067 573.998C246.158 580.703 242.987 588.916 236.307 591.502C228.479 594.533 221.006 590.872 218.36 583.042C217.799 581.381 216.211 579.477 214.63 578.839C190.093 568.933 167.247 556.211 146.901 539.151C145.632 538.087 143.43 537.535 141.74 537.677C134.164 538.311 128.518 535.022 126.59 528.449C124.566 521.554 127.372 515.346 134.42 511.821Z" fill="black"/>
<path d="M134.574 512.305C139.849 511.573 143.794 512.393 146.537 514.565C149.295 516.748 150.94 520.376 151.424 525.467C151.532 526.608 152.069 527.793 152.773 528.852C153.482 529.916 154.386 530.891 155.283 531.615C172.768 545.742 192.062 556.881 212.618 565.862C214.531 566.698 216.578 567.85 218.726 568.289C220.55 568.663 222.944 568.841 224.671 568.005C231.291 564.801 239.53 567.523 242.612 574.207C245.59 580.665 242.523 588.559 236.127 591.035C232.33 592.505 228.648 592.345 225.605 590.894C222.562 589.442 220.118 586.681 218.834 582.882C218.529 581.979 217.954 581.032 217.255 580.229C216.558 579.428 215.704 578.733 214.817 578.375C190.318 568.485 167.52 555.788 147.222 538.768C145.831 537.602 143.49 537.029 141.698 537.179C137.99 537.49 134.795 536.836 132.305 535.337C129.82 533.842 128.001 531.483 127.069 528.308C126.088 524.963 126.284 521.814 127.557 519.082C128.821 516.367 131.17 514.023 134.574 512.305Z" stroke="black" stroke-opacity="0.666667"/>
<path d="M153.742 161.275C150.236 164.07 148.573 166.729 149.158 171.505C150.165 179.72 142.138 186.872 133.541 186.552C125.041 186.236 118.465 179.267 119.144 171.297C119.95 161.851 126.936 156.355 136.257 157.484C138.199 157.719 140.996 157.406 142.21 156.174C166.903 131.106 196.243 113.33 228.755 100.441C230.291 99.8322 231.799 99.1525 233.424 98.4617C235.513 101.872 237.575 105.239 239.938 109.098C207.675 120.637 178.661 137.268 153.742 161.275Z" fill="black"/>
<path d="M239.191 108.835C207.108 120.383 178.231 136.989 153.405 160.904C151.638 162.316 150.289 163.73 149.465 165.429C148.633 167.146 148.36 169.106 148.662 171.566C149.142 175.486 147.471 179.177 144.609 181.865C141.745 184.554 137.716 186.207 133.559 186.053C125.314 185.745 118.991 178.995 119.643 171.34C120.036 166.734 121.929 163.132 124.82 160.815C127.712 158.498 131.649 157.429 136.197 157.98C137.216 158.104 138.451 158.083 139.597 157.871C140.727 157.661 141.852 157.25 142.566 156.525C167.202 131.516 196.479 113.774 228.939 100.906C230.355 100.345 231.757 99.72 233.223 99.0916C235.14 102.221 237.045 105.331 239.191 108.835Z" stroke="black" stroke-opacity="0.666667"/>
<path d="M571.072 372.723C570.498 375.864 571.011 377.933 573.061 380.222C578.402 386.188 577.25 394.892 571.009 399.593C564.669 404.368 556.209 402.971 551.786 396.419C547.287 389.754 549.344 381.205 556.227 376.922C557.569 376.087 558.923 374.31 559.154 372.797C562.253 352.49 562.253 332.137 559.364 311.81C559.133 310.184 557.948 308.272 556.617 307.295C550.104 302.517 548.476 293.671 553.24 287.49C557.84 281.522 566.464 280.667 572.337 285.598C578.243 290.556 578.236 299.368 572.679 305.585C571.5 306.904 571.013 309.31 571.07 311.19C571.513 325.94 572.371 340.68 572.649 355.431C572.755 361.037 571.677 366.666 571.072 372.723Z" fill="black"/>
<path d="M553.636 287.796C558.058 282.06 566.354 281.227 572.015 285.98C577.663 290.721 577.715 299.201 572.306 305.252C571.645 305.992 571.201 307.006 570.927 308.05C570.653 309.1 570.54 310.22 570.57 311.205C571.014 325.981 571.871 340.686 572.149 355.441C572.254 361 571.189 366.537 570.578 372.644C570.285 374.254 570.262 375.632 570.598 376.919C570.936 378.211 571.626 379.369 572.688 380.555C577.824 386.291 576.727 394.66 570.708 399.194C564.595 403.798 556.461 402.453 552.2 396.139C547.869 389.723 549.835 381.489 556.491 377.346C557.226 376.889 557.945 376.187 558.511 375.407C559.075 374.629 559.517 373.733 559.648 372.872C562.755 352.516 562.754 332.113 559.859 311.739C559.608 309.973 558.346 307.944 556.913 306.892C550.601 302.262 549.062 293.73 553.636 287.796Z" stroke="black" stroke-opacity="0.666667"/>
<path d="M499.417 161.083C505.245 168.086 505.041 175.659 499.161 180.741C493.783 185.389 485.27 185 480.971 179.14C478.991 176.44 478.823 172.434 477.724 169.057C477.074 167.059 476.739 164.582 475.362 163.252C450.063 138.812 420.087 122.127 387.12 110.466C385.252 109.805 383.41 109.068 381.192 108.228C382.251 106.376 383.194 104.721 384.143 103.069C385.036 101.513 385.935 99.96 386.991 98.1307C405.617 104.601 423.466 112.459 440.473 122.289C456.55 131.582 470.959 143.001 484.558 155.559C485.881 156.78 488.189 156.932 490.037 157.587C493.076 158.663 496.113 159.745 499.417 161.083Z" fill="black"/>
<path d="M387.216 98.7391C405.676 105.175 423.366 112.978 440.222 122.722C456.258 131.991 470.638 143.385 484.219 155.927C484.973 156.623 485.98 156.991 486.966 157.266C488.001 157.556 488.962 157.735 489.871 158.057C492.872 159.121 495.863 160.187 499.109 161.498C501.913 164.901 503.235 168.397 503.18 171.624C503.125 174.871 501.678 177.905 498.834 180.362C493.648 184.844 485.479 184.439 481.375 178.845C480.446 177.579 479.927 175.984 479.503 174.235C479.088 172.522 478.756 170.613 478.2 168.902C478.042 168.417 477.902 167.9 477.757 167.363C477.614 166.831 477.465 166.281 477.292 165.749C476.948 164.695 476.489 163.645 475.709 162.892C450.349 138.393 420.305 121.674 387.287 109.995C385.579 109.391 383.901 108.727 381.915 107.97C382.858 106.319 383.716 104.818 384.577 103.318C385.411 101.865 386.249 100.415 387.216 98.7391Z" stroke="black" stroke-opacity="0.666667"/>
<path d="M62.7093 282.699C74.6055 288.561 75.4687 300.42 65.0265 307.621C63.8231 308.451 62.9514 310.415 62.7569 311.958C59.1085 340.905 60.9427 369.631 66.4806 398.19C66.7298 399.476 66.9448 400.768 67.197 402.175C63.0386 402.175 59.083 402.175 54.5304 402.175C53.4209 394.207 51.9311 386.396 51.326 378.518C50.2851 364.964 49.3689 351.373 49.2243 337.789C49.1275 328.699 50.5384 319.598 51.0673 310.491C51.159 308.912 50.6694 306.883 49.6742 305.73C44.9887 300.3 43.8594 294.27 46.9076 288.834C49.8683 283.555 55.2743 281.376 62.7093 282.699Z" fill="black"/>
<path d="M53.3135 283.756C55.8407 282.765 58.9294 282.545 62.5518 283.18C68.3452 286.055 71.3698 290.338 71.7471 294.701C72.1254 299.078 69.8528 303.685 64.7422 307.209C64.0448 307.69 63.4784 308.47 63.0654 309.299C62.6494 310.134 62.3655 311.065 62.2607 311.896C58.6044 340.904 60.4434 369.685 65.9893 398.285C66.2028 399.387 66.392 400.488 66.6016 401.675H54.9629C53.8561 393.825 52.417 386.197 51.8242 378.48C50.7834 364.928 49.869 351.35 49.7246 337.783C49.6765 333.264 50.0028 328.737 50.4092 324.191C50.8149 319.652 51.3014 315.084 51.5664 310.52C51.6631 308.855 51.1575 306.683 50.0527 305.402C45.4671 300.089 44.4242 294.284 47.3438 289.078C48.7715 286.532 50.7774 284.75 53.3135 283.756Z" stroke="black" stroke-opacity="0.666667"/>
</svg>
