<svg width="773" height="500" viewBox="0 0 773 500" fill="none" xmlns="http://www.w3.org/2000/svg">
<path d="M64.874 129.552C112.577 101.421 175.092 107.675 216.264 144.719C220.69 148.702 224.617 153.256 228.463 158.046C232.289 162.811 236.061 167.844 240.13 172.724C256.725 199.346 261.979 227.687 257.975 257.987C255.332 277.98 246.949 295.579 235.584 311.993C214.006 339.91 185.839 356.839 150.99 362.33C99.8614 370.386 48.3625 348.44 20.2305 304.055C7.75723 284.376 0.50372 263.026 0.5 239.854C0.492187 190.783 23.0506 154.217 64.874 129.552ZM236.827 208.844C219.439 151.428 159.87 118.439 100.588 134.006L100.578 134.008L100.569 134.01C84.9241 138.781 70.6811 146.002 57.9053 156.484C9.04697 196.57 5.38216 269.731 51.0615 313.367C68.5553 330.078 87.6018 340.386 107.942 344.42C128.282 348.453 149.882 346.205 172.475 337.857C224.176 318.754 252.626 261.014 236.827 208.844Z" fill="black" stroke="black"/>
<path d="M681.542 3.49512C688.513 -0.00456803 696.211 -0.437939 704.745 2.19824C719.247 6.67839 728.323 19.9795 727.285 35.2441C726.322 49.3884 715.527 60.7549 700.628 63.2236C692.2 64.6201 684.641 63.23 678.215 59.2109C671.783 55.1878 666.444 48.5047 662.514 39.249L662.384 38.9443H662.054C643.31 38.9443 624.353 38.9552 605.396 38.9424C557.081 38.9098 508.763 38.8244 460.446 38.96C459.223 38.9634 457.874 39.3365 456.639 39.9131C455.402 40.4905 454.241 41.2897 453.398 42.1807C426.741 70.3629 400.241 98.6946 373.705 126.988C372.679 128.082 371.642 129.127 370.17 130.673L370.158 130.686L370.147 130.699C367.637 133.737 365.538 136.325 363.445 138.908C362.817 139.306 362.166 139.726 361.143 140.558L361.112 140.583L361.085 140.613C358.189 143.872 355.687 146.695 353.186 149.518C350.661 152.1 348.133 154.684 345.208 157.706L345.198 157.718L345.187 157.73C344.098 159.013 343.238 160.04 342.32 161.09L341.371 162.158C337.841 165.855 334.586 169.352 331.334 172.846C328.994 174.19 326.667 175.523 323.552 176.887C300.832 176.982 278.935 177.046 256.752 176.911C254.41 173.429 252.343 170.134 250.272 166.832C249.389 165.351 248.505 163.868 247.345 161.924C248.82 161.924 249.992 161.924 251.164 161.924C272.487 161.918 293.818 161.997 315.145 161.784C316.368 161.772 317.741 161.476 319.005 160.975C320.268 160.474 321.46 159.754 322.295 158.865C348.64 130.842 374.781 102.623 401.03 74.5146C416.03 58.4518 431.041 42.4017 446.342 26.6367C447.276 25.6745 448.649 24.8609 450.167 24.2881C451.681 23.7163 453.304 23.3986 454.711 23.3984C523.518 23.3945 592.325 23.6207 661.133 23.7998C661.502 23.8008 661.911 23.7213 662.181 23.6885L662.429 23.6582L662.554 23.4424C668.244 13.6154 674.556 7.00199 681.542 3.49512ZM706.167 20.3389C699.09 14.0591 689.248 14.4379 682.582 21.2363C679.383 24.4987 677.842 28.3635 678.061 32.4297C678.28 36.4868 680.245 40.6837 683.942 44.6357L683.975 44.6709L684.014 44.6992C692.217 50.6369 702.02 49.7975 707.897 42.5244C713.532 35.5504 712.811 26.2356 706.167 20.3389Z" fill="black" stroke="black"/>
<path d="M727.167 194.508C734.853 191.68 743.177 191.959 749.89 193.857C764.163 197.894 773.505 211.884 772.285 226.93C771.078 241.81 758.867 253.612 742.501 255.327C731.046 256.528 712.969 250.092 707.689 230.896L707.59 230.534L707.216 230.528L533.773 227.595C515.05 227.259 497.243 226.867 479.435 226.671C476.745 226.641 473.853 226.463 471.084 226.501C468.29 226.539 465.517 226.794 462.945 227.646C460.146 228.573 457.563 230.098 455.067 231.768C452.555 233.448 450.185 235.234 447.684 236.8C446.399 237.353 445.122 237.902 443.436 238.47L442.68 238.717L442.673 238.72C441.27 239.189 440.478 239.631 439.723 240.061C436.378 240.925 433.035 241.789 429.3 242.671L429.282 242.617L429.177 242.527L428.983 242.375C428.538 242.054 428.113 241.952 427.422 241.796L427.369 241.784H427.315C383.78 241.484 340.706 241.212 297.632 241.155C292.948 241.149 289.106 240.67 286.266 236.706C286.202 236.436 286.107 236.213 285.955 236.01C285.806 235.811 285.616 235.65 285.425 235.493C284.635 234.404 284.022 233.698 283.296 232.612C282.035 230.474 280.869 228.662 279.992 226.788C282.938 226.455 285.503 226.094 288.076 226.109C303.171 226.2 318.339 226.474 333.443 226.547C355.549 226.653 377.656 226.641 399.76 226.68V226.681C409.451 226.737 419.143 226.794 429.654 226.852L429.728 226.853L429.8 226.831C431.951 226.189 433.273 225.543 434.57 224.908L434.58 224.903L434.589 224.898C436.553 223.833 438.565 222.881 440.585 221.843C442.589 220.812 444.57 219.71 446.395 218.381C454.662 212.359 463.72 210.748 473.831 211.319C486.633 212.043 499.504 211.829 512.302 212.021C559.403 212.728 606.506 213.509 653.61 214.106C671.561 214.334 689.522 214.144 707.754 214.144H708.093L708.219 213.829C712.434 203.256 719.497 197.33 727.167 194.508ZM750.496 211.253C744.685 206.759 737.141 206.255 730.828 210.038C724.81 213.644 721.923 220.153 723.212 227.17C724.372 233.488 729.771 238.713 736.384 239.974C740.223 240.705 743.755 240.297 746.962 238.655C750.161 237.017 752.997 234.171 755.492 230.099L755.502 230.082L755.511 230.063C759.263 222.669 755.091 214.807 750.496 211.253Z" fill="black" stroke="black"/>
<path d="M271.29 261.104C271.89 260.717 272.787 260.603 274.182 260.686L274.194 260.687H274.207C275.95 260.702 277.582 260.697 279.211 260.692C280.841 260.688 282.47 260.683 284.213 260.7V260.701C324.968 261.272 365.257 261.756 405.851 262.479V262.48C408.443 262.556 410.733 262.391 413.394 262.248C421.773 262.301 429.742 262.333 437.708 262.365C440.377 263.083 443.027 263.8 446.12 264.949C448.988 267.876 451.402 270.357 453.819 272.837C471.334 290.804 488.849 308.771 506.364 326.738V326.737C515.614 336.522 524.823 346.359 534.196 356.036V356.035C534.76 356.618 535.575 357.01 536.407 357.261C537.246 357.513 538.15 357.636 538.939 357.649C555.42 357.924 571.904 358.133 588.388 358.222C604.856 358.31 621.327 358.241 638.106 358.241H638.457L638.576 357.912C641.478 349.92 646.632 343.712 653.448 340.082C660.262 336.453 668.776 335.379 678.435 337.726C693.841 341.468 703.641 355.168 702.573 369.919C701.527 384.365 690.323 396.55 676.097 398.726C667.441 400.049 659.556 398.495 653.002 394.35C646.446 390.202 641.186 383.438 637.827 374.284L637.707 373.957H637.358C625.967 373.957 614.209 374.068 602.45 373.934C579.972 373.677 557.473 373.18 534.986 373.021C530.24 372.987 526.777 371.441 523.517 368.018C503.778 347.288 483.88 326.706 463.643 305.615L463.619 305.591L463.592 305.569L463.306 305.351C462.738 304.932 462.387 304.778 462.063 304.652C460.613 303.245 459.18 301.848 457.629 299.913C457.024 298.893 456.535 298.441 456.069 298.014C452.973 294.709 449.879 291.404 446.389 287.619L446.37 287.598L446.348 287.579L445.505 286.86C443.606 285.254 441.967 283.965 440.337 282.685L440.321 282.532L440.204 282.41L439.901 282.084C439.598 281.75 439.294 281.394 438.986 281.033C438.578 280.557 438.161 280.07 437.743 279.636C437.325 279.202 436.889 278.803 436.436 278.508C435.983 278.213 435.483 278.002 434.946 277.992C416.233 277.634 397.5 277.652 378.402 277.425H378.403C370.277 277.246 362.515 277.211 354.332 277.062H354.331C340.842 276.843 327.831 276.74 314.436 276.489C313.848 276.454 313.352 276.455 312.868 276.457C312.377 276.459 311.898 276.461 311.32 276.429L311.312 276.428H311.304C310.241 276.4 309.281 276.409 308.331 276.42C307.379 276.43 306.438 276.442 305.398 276.422H305.399C302.647 276.346 299.995 276.304 297.339 276.262C294.683 276.22 292.024 276.179 289.252 276.107H289.248C281.592 275.988 274.362 275.985 266.833 275.985C268.082 271.532 269.483 267.579 270.097 263.544C270.308 262.161 270.72 261.471 271.29 261.104ZM682.061 356.708C677 351.706 670.786 350.16 664.105 352.538C660.648 353.768 657.959 355.695 656.105 358.381C654.253 361.064 653.262 364.466 653.13 368.604L653.127 368.688L653.153 368.769C653.495 369.864 653.731 370.969 654.047 372.134C654.357 373.271 654.733 374.414 655.336 375.441C657.129 378.494 659.412 380.78 662.161 382.222C664.91 383.664 668.095 384.245 671.665 383.935C678.606 383.33 683.561 379.655 686.055 373.179C687.26 370.05 687.431 367.074 686.704 364.298C685.978 361.526 684.367 358.987 682.061 356.708Z" fill="black" stroke="black"/>
<path d="M260.935 298.584C274.863 298.773 288.798 298.669 302.719 298.668C303.461 298.817 304.23 298.969 305.769 299.135L305.802 299.138L305.833 299.137C309.004 299.072 311.376 298.989 313.742 298.907C315.103 299.017 316.467 299.129 318.599 299.321L318.619 299.323H318.637C328.819 299.474 338.23 299.541 347.635 299.609C348.878 300.297 350.301 300.887 351.538 301.496C352.848 302.141 354.014 302.837 354.86 303.782C398.807 352.874 442.823 401.903 486.167 451.518C488.835 454.573 491.522 455.937 494.288 456.56C497.008 457.173 499.832 457.067 502.657 457.206C520.912 458.101 539.183 458.724 557.27 459.446L557.611 459.46L557.748 459.148C565.487 441.575 580.441 433.255 596.718 436.993C611.911 440.482 622.494 453.647 622.064 468.439C621.634 483.245 610.682 495.753 595.632 498.363C589.203 499.478 581.403 498.85 574.349 495.217C567.309 491.589 560.98 484.951 557.497 473.979L557.386 473.631H557.02C546.429 473.631 535.484 473.763 524.537 473.594C512.569 473.411 500.602 473.212 488.682 472.422C485.875 472.235 482.449 470.461 480.524 468.323C460.712 446.315 441.215 424.031 421.533 401.895C401.106 378.921 380.582 356.033 359.683 332.635C355.232 327.578 351.345 322.746 346.984 318.417C345.256 316.701 342.4 315.291 339.962 315.21C322.899 314.642 305.823 314.427 288.761 314.102H288.758C277.408 313.988 266.057 313.875 253.868 313.749H253.869C251.867 313.667 250.463 313.592 249.001 313.511C251.463 309.37 253.903 305.658 255.812 301.717C256.422 300.459 257.035 299.691 257.793 299.228C258.552 298.765 259.523 298.565 260.935 298.584ZM591.757 451.704C588.336 451.162 584.91 451.789 581.594 453.578C575.631 456.794 572.292 463.321 573.276 469.878C574.282 476.575 579.27 481.782 586.233 483.474C592.45 484.985 599.701 482.194 603.421 476.872C605.491 473.91 606.459 470.87 606.213 467.561C605.967 464.267 604.522 460.76 601.872 456.844L601.835 456.79L601.785 456.747L601.177 456.234C598.126 453.736 594.959 452.211 591.757 451.704Z" fill="black" stroke="black"/>
<path d="M542.702 97.3872C549.335 93.7497 557.16 92.769 565.828 94.6919C580.616 97.9726 591.108 111.192 590.665 125.944C590.225 140.615 579.457 153.23 565.31 155.683C556.384 157.231 548.455 155.907 541.854 151.911C535.25 147.912 529.929 141.209 526.279 131.916L526.154 131.598H525.813C509.025 131.598 492.026 132.651 475.194 131.278C467.958 130.688 461.594 131.405 455.938 133.805C450.288 136.203 445.381 140.264 441.025 146.304C428.73 158.506 416.879 170.264 405.03 182.023C404.99 182.042 404.941 182.065 404.887 182.096C404.742 182.178 404.553 182.307 404.359 182.499H404.358C396.629 190.189 389.088 197.48 381.823 205.026C379.096 207.859 376.173 208.822 372.265 208.807C338.829 208.678 305.392 208.727 271.958 208.705C270.814 208.704 269.697 208.573 268.679 208.49C267.236 203.602 265.87 198.97 264.316 193.708H300.76L330.741 193.865H330.752C334.695 193.806 337.732 193.744 340.767 193.681C346.122 193.74 351.479 193.799 357.716 193.86H357.731C360.305 193.803 362.018 193.743 363.719 193.684C366.244 194.268 368.418 194.044 370.408 193.21C372.403 192.375 374.185 190.94 375.941 189.167C398.813 166.087 421.917 143.268 444.836 120.225C447.696 117.35 450.714 116.408 454.694 116.43C478.513 116.565 502.334 116.496 526.179 116.496H526.503L526.636 116.199C530.577 107.353 536.065 101.027 542.702 97.3872ZM559.368 108.93C555.531 108.73 552.148 109.493 549.264 111.307C546.382 113.12 544.037 115.956 542.229 119.836L542.206 119.886L542.194 119.939C541.955 121.016 541.585 122.216 541.446 123.397C540.715 129.604 544.584 136.172 550.669 139.328C556.969 142.595 563.924 141.765 569.287 137.104C574.578 132.506 576.508 126.138 574.098 119.954C571.516 113.329 566.542 109.305 559.368 108.93Z" fill="black" stroke="black"/>
<mask id="path-7-inside-1_8_237" fill="white">
<path d="M292.028 278.544C294.13 278.286 296.5 278.286 299.315 278.288C297.271 278.461 294.783 278.632 292.028 278.544Z"/>
</mask>
<path d="M292.028 278.544C294.13 278.286 296.5 278.286 299.315 278.288C297.271 278.461 294.783 278.632 292.028 278.544Z" fill="black"/>
<path d="M292.028 278.544L291.906 277.551L291.996 279.543L292.028 278.544ZM299.315 278.288L299.399 279.284L299.316 277.288L299.315 278.288ZM292.028 278.544L292.15 279.536C294.178 279.287 296.482 279.286 299.314 279.288L299.315 278.288L299.316 277.288C296.519 277.286 294.082 277.284 291.906 277.551L292.028 278.544ZM299.315 278.288L299.231 277.291C297.199 277.463 294.757 277.63 292.059 277.544L292.028 278.544L291.996 279.543C294.81 279.633 297.343 279.458 299.399 279.284L299.315 278.288Z" fill="black" mask="url(#path-7-inside-1_8_237)"/>
<mask id="path-9-inside-2_8_237" fill="white">
<path d="M433.944 224.418C433.059 225.09 431.767 225.722 430.117 226.262C431.018 225.573 432.278 224.975 433.944 224.418Z"/>
</mask>
<path d="M433.944 224.418C433.059 225.09 431.767 225.722 430.117 226.262C431.018 225.573 432.278 224.975 433.944 224.418Z" fill="black"/>
<path d="M433.944 224.418L434.549 225.214L433.627 223.47L433.944 224.418ZM430.117 226.262L429.51 225.467L430.428 227.212L430.117 226.262ZM433.944 224.418L433.339 223.622C432.574 224.202 431.396 224.791 429.806 225.311L430.117 226.262L430.428 227.212C432.139 226.652 433.543 225.978 434.549 225.214L433.944 224.418ZM430.117 226.262L430.725 227.056C431.5 226.463 432.642 225.908 434.261 225.366L433.944 224.418L433.627 223.47C431.914 224.042 430.536 224.682 429.51 225.467L430.117 226.262Z" fill="black" mask="url(#path-9-inside-2_8_237)"/>
<mask id="path-11-inside-3_8_237" fill="white">
<path d="M440.121 240.923C440.674 240.095 441.437 239.66 442.481 239.294C441.952 240.015 441.142 240.666 440.121 240.923Z"/>
</mask>
<path d="M440.121 240.923C440.674 240.095 441.437 239.66 442.481 239.294C441.952 240.015 441.142 240.666 440.121 240.923Z" fill="black"/>
<path d="M440.121 240.923L439.289 240.368L437.848 242.527L440.366 241.893L440.121 240.923ZM442.481 239.294L443.287 239.886L445.199 237.284L442.151 238.351L442.481 239.294ZM440.121 240.923L440.953 241.478C441.333 240.909 441.861 240.571 442.812 240.238L442.481 239.294L442.151 238.351C441.013 238.749 440.015 239.281 439.289 240.368L440.121 240.923ZM442.481 239.294L441.675 238.702C441.256 239.273 440.631 239.763 439.877 239.953L440.121 240.923L440.366 241.893C441.653 241.568 442.648 240.757 443.287 239.886L442.481 239.294Z" fill="black" mask="url(#path-11-inside-3_8_237)"/>
<mask id="path-13-inside-4_8_237" fill="white">
<path d="M455.762 298.677C456.182 298.795 456.638 299.213 457.04 299.946C456.59 299.832 456.194 299.404 455.762 298.677Z"/>
</mask>
<path d="M455.762 298.677C456.182 298.795 456.638 299.213 457.04 299.946C456.59 299.832 456.194 299.404 455.762 298.677Z" fill="black"/>
<path d="M455.762 298.677L456.033 297.714L453.622 297.034L454.902 299.188L455.762 298.677ZM457.04 299.946L456.796 300.915L459.022 301.477L457.917 299.465L457.04 299.946ZM455.762 298.677L455.49 299.639C455.499 299.642 455.578 299.669 455.711 299.798C455.841 299.925 455.999 300.127 456.164 300.427L457.04 299.946L457.917 299.465C457.463 298.638 456.833 297.94 456.033 297.714L455.762 298.677ZM457.04 299.946L457.285 298.976C457.265 298.971 457.05 298.886 456.621 298.166L455.762 298.677L454.902 299.188C455.339 299.923 455.915 300.693 456.796 300.915L457.04 299.946Z" fill="black" mask="url(#path-13-inside-4_8_237)"/>
<mask id="path-15-inside-5_8_237" fill="white">
<path d="M285.059 235.838C284.255 235.297 283.348 234.46 282.691 233.416C283.613 233.987 284.284 234.765 285.059 235.838Z"/>
</mask>
<path d="M285.059 235.838C284.255 235.297 283.348 234.46 282.691 233.416C283.613 233.987 284.284 234.765 285.059 235.838Z" fill="black"/>
<path d="M285.059 235.838L284.5 236.668L285.869 235.253L285.059 235.838ZM282.691 233.416L283.218 232.566L281.845 233.949L282.691 233.416ZM285.059 235.838L285.618 235.009C284.908 234.531 284.107 233.789 283.537 232.883L282.691 233.416L281.845 233.949C282.588 235.13 283.602 236.062 284.5 236.668L285.059 235.838ZM282.691 233.416L282.164 234.266C282.915 234.731 283.493 235.379 284.248 236.424L285.059 235.838L285.869 235.253C285.074 234.152 284.31 233.243 283.218 232.566L282.691 233.416Z" fill="black" mask="url(#path-15-inside-5_8_237)"/>
<mask id="path-17-inside-6_8_237" fill="white">
<path d="M428.852 242.908C428.61 243.124 428.32 242.986 427.922 242.568C428.103 242.463 428.433 242.551 428.852 242.908Z"/>
</mask>
<path d="M428.852 242.908C428.61 243.124 428.32 242.986 427.922 242.568C428.103 242.463 428.433 242.551 428.852 242.908Z" fill="black"/>
<path d="M428.852 242.908L429.519 243.653L430.372 242.889L429.5 242.146L428.852 242.908ZM427.922 242.568L427.419 241.704L426.324 242.341L427.198 243.258L427.922 242.568ZM428.852 242.908L428.185 242.163C428.242 242.111 428.349 242.042 428.501 242.017C428.648 241.994 428.759 242.025 428.81 242.044C428.854 242.062 428.859 242.073 428.819 242.041C428.781 242.012 428.725 241.961 428.646 241.878L427.922 242.568L427.198 243.258C427.416 243.487 427.714 243.763 428.081 243.907C428.284 243.986 428.539 244.037 428.821 243.992C429.107 243.945 429.341 243.812 429.519 243.653L428.852 242.908ZM427.922 242.568L428.425 243.432C428.3 243.505 428.181 243.525 428.101 243.526C428.024 243.528 427.98 243.513 427.976 243.511C427.975 243.511 428.053 243.54 428.203 243.669L428.852 242.908L429.5 242.146C429.232 241.918 428.936 241.725 428.619 241.617C428.315 241.514 427.856 241.45 427.419 241.704L427.922 242.568Z" fill="black" mask="url(#path-17-inside-6_8_237)"/>
<mask id="path-19-inside-7_8_237" fill="white">
<path d="M405.866 261.98C407.861 261.515 410.16 261.288 412.717 261.395C410.706 261.891 408.438 262.055 405.866 261.98Z"/>
</mask>
<path d="M405.866 261.98C407.861 261.515 410.16 261.288 412.717 261.395C410.706 261.891 408.438 262.055 405.866 261.98Z" fill="black"/>
<path d="M405.866 261.98L405.639 261.006L405.837 262.98L405.866 261.98ZM412.717 261.395L412.957 262.365L412.759 260.395L412.717 261.395ZM405.866 261.98L406.093 262.954C407.993 262.511 410.202 262.291 412.675 262.394L412.717 261.395L412.759 260.395C410.119 260.286 407.728 260.519 405.639 261.006L405.866 261.98ZM412.717 261.395L412.477 260.424C410.583 260.892 408.413 261.054 405.895 260.98L405.866 261.98L405.837 262.98C408.464 263.056 410.829 262.891 412.957 262.365L412.717 261.395Z" fill="black" mask="url(#path-19-inside-7_8_237)"/>
<mask id="path-21-inside-8_8_237" fill="white">
<path d="M314.424 276.989C313.888 277.293 312.981 277.449 311.884 277.339C312.481 276.995 313.267 276.918 314.424 276.989Z"/>
</mask>
<path d="M314.424 276.989C313.888 277.293 312.981 277.449 311.884 277.339C312.481 276.995 313.267 276.918 314.424 276.989Z" fill="black"/>
<path d="M314.424 276.989L314.917 277.858L317.846 276.196L314.485 275.991L314.424 276.989ZM311.884 277.339L311.385 276.473L308.695 278.023L311.784 278.334L311.884 277.339ZM314.424 276.989L313.93 276.119C313.642 276.283 312.969 276.443 311.984 276.344L311.884 277.339L311.784 278.334C312.992 278.456 314.133 278.304 314.917 277.858L314.424 276.989ZM311.884 277.339L312.384 278.206C312.708 278.019 313.234 277.918 314.363 277.987L314.424 276.989L314.485 275.991C313.3 275.918 312.254 275.972 311.385 276.473L311.884 277.339Z" fill="black" mask="url(#path-21-inside-8_8_237)"/>
</svg>
