<svg width="1024" height="1024" viewBox="0 0 1024 1024" fill="none" xmlns="http://www.w3.org/2000/svg">
<g clip-path="url(#clip0_8_238)">
<path d="M840.992 481.955C821.377 481.855 801.762 481.686 782.147 481.668C738.079 481.628 694.011 481.663 649.141 481.711C648.221 482.17 648.103 482.586 647.985 483.003C647.887 485.655 647.789 488.307 647.441 491.681C647.245 493.594 647.3 494.788 647.354 495.981C647.927 497.363 648.155 499.077 649.121 500.08C684.235 536.537 719.41 572.935 754.632 609.287C755.671 610.36 757.273 611.426 758.679 611.52C770.113 612.293 781.562 612.832 793.461 613.467C797.039 602.939 803.973 595.219 814.503 591.195C822.218 588.246 830.105 588.284 837.98 590.977C853.596 596.317 863.209 612.535 860.918 629.819C858.912 644.951 845.036 657.509 829.011 658.697C811.328 660.008 797.623 649.456 792.123 630.026C779.669 629.366 767.104 628.492 754.524 628.156C750.516 628.049 747.906 626.792 745.166 623.911C712.106 589.163 678.896 554.559 645.72 519.922C645.159 519.335 644.54 518.803 643.571 517.89C633.953 554.928 613.881 584.602 583.308 606.949C552.478 629.482 517.676 638.771 479.818 635.728C411.847 630.265 347.539 576.153 338.193 497.15C336.468 497.15 334.684 497.15 332.899 497.15C288.581 497.145 244.261 497.258 199.945 496.979C194.725 496.946 192.183 498.306 189.909 503.03C184.295 514.697 171.481 521.116 159.407 519.172C145.514 516.936 134.981 507.244 132.995 494.869C130.323 478.222 139.336 463.459 154.698 459.321C170.916 454.953 185.713 463.033 192.887 480.074C193.664 480.235 193.841 480.17 194.018 480.104C204.311 480.197 214.604 480.359 224.897 480.369C261.622 480.404 298.347 480.387 335.841 480.359C336.952 479.891 337.294 479.454 337.636 479.017C338.075 451.649 344.816 425.802 359.355 402.724C393.42 348.655 442.879 321.486 506.735 326.614C560.952 330.968 601.725 359.275 628.766 406.76C629.5 408.049 630.178 409.369 631.265 411.384C638.354 404.187 645.155 397.247 651.995 390.346C676.274 365.852 700.542 341.348 724.924 316.957C726.108 315.772 728.331 315.093 730.076 315.081C748.891 314.949 767.707 314.999 786.463 314.999C794.12 291.475 812.01 285.739 827.564 288.223C843.732 290.804 855.707 305.226 856.073 321.997C856.428 338.242 844.872 353.214 829.264 356.732C810.497 360.963 796.15 352.364 786.62 331.076C770.191 331.076 753.701 331.031 737.212 331.155C735.777 331.165 733.99 331.923 732.971 332.94C702.423 363.409 671.972 393.975 641.424 424.445C639.285 426.578 638.869 428.271 639.711 431.31C642.723 442.177 645.194 453.194 648.006 464.712C712.003 464.712 776.914 464.712 842.055 464.712C845.757 452.618 853.488 443.978 865.905 440.161C883.451 434.767 903.282 444.83 908.85 461.702C915.012 480.376 905.754 500.518 888.137 506.772C869.802 513.28 850.045 504.093 843.318 485.929C843.03 485.149 842.767 484.361 842.277 482.97C841.705 482.227 841.349 482.091 840.992 481.955ZM519.912 611.645C595.958 594.4 641.753 519.946 621.568 446.095C599.772 366.354 508.181 321.195 429.342 364.222C377.457 392.539 349.949 452.323 362.684 509.255C378.346 579.269 448.439 626.671 519.912 611.645ZM838.015 330.226C838.393 328.966 838.846 327.723 839.136 326.443C840.794 319.13 837.811 311.601 831.613 307.351C824.991 302.81 816.628 302.838 810.149 307.424C803.958 311.807 801.072 319.344 802.808 326.598C804.843 335.099 810.809 341.04 819.144 341.757C827.617 342.486 833.734 338.32 838.015 330.226ZM894.212 471.239C892.247 460.575 883.82 453.905 873.84 455.117C863.784 456.337 856.682 465.256 857.62 475.487C858.515 485.258 867.548 493.342 876.791 492.645C887.523 491.836 894.857 483.264 894.212 471.239ZM844.927 620.998C844.292 619.118 843.854 617.143 842.989 615.376C839.002 607.232 829.063 603.264 820.585 606.314C811.806 609.472 806.516 619.003 808.645 627.823C810.946 637.352 819.391 643.619 828.351 642.448C838.692 641.095 845.524 632.666 844.927 620.998ZM151.319 479.971C146.21 488.587 148.135 497.339 156.092 501.675C163.591 505.762 172.498 502.917 176.306 495.22C179.378 489.01 177.238 480.696 171.515 476.607C165.375 472.219 158.28 473.232 151.319 479.971Z" fill="black"/>
<path d="M647.673 495.867C647.3 494.788 647.245 493.594 647.413 492.12C647.754 493.144 647.873 494.449 647.673 495.867Z" fill="black"/>
<path d="M337.373 479.07C337.294 479.454 336.952 479.891 336.292 480.228C336.353 479.793 336.732 479.458 337.373 479.07Z" fill="black"/>
<path d="M193.93 479.935C193.841 480.17 193.664 480.235 193.242 480.158C193.279 479.932 193.56 479.848 193.93 479.935Z" fill="black"/>
<path d="M648.217 482.872C648.103 482.586 648.221 482.17 648.682 481.807C648.834 482.153 648.642 482.448 648.217 482.872Z" fill="black"/>
<path d="M841.111 482.184C841.349 482.091 841.705 482.227 842.059 482.686C841.78 482.811 841.505 482.612 841.111 482.184Z" fill="black"/>
</g>
<defs>
<clipPath id="clip0_8_238">
<rect width="1024" height="1024" fill="white"/>
</clipPath>
</defs>
</svg>
